<svg height="512pt" viewBox="0 -21 512 512" width="512pt" xmlns="http://www.w3.org/2000/svg"><path d="m502.121094 68.082031c0-5.570312-4.511719-10.085937-10.082032-10.085937h-471.664062c-5.570312 0-10.085938 4.515625-10.085938 10.085937v92.996094h491.832032zm0 0" fill="#fd3c65"/><path d="m10.085938 161.078125v288.597656c0 5.566407 4.511718 10.082031 10.082031 10.082031h471.664062c5.570313 0 10.082031-4.515624 10.082031-10.082031v-288.597656zm0 0" fill="#fff"/><path d="m137.269531 102.273438c-11.722656 0-21.226562-9.503907-21.226562-21.230469v-49.730469c0-11.722656 9.503906-21.226562 21.226562-21.226562 11.726563 0 21.230469 9.503906 21.230469 21.226562v49.734375c0 11.722656-9.503906 21.226563-21.230469 21.226563zm0 0" fill="#fea82f"/><path d="m375.429688 102.273438c-11.726563 0-21.230469-9.503907-21.230469-21.230469v-49.730469c0-11.722656 9.503906-21.226562 21.230469-21.226562 11.726562 0 21.230468 9.503906 21.230468 21.226562v49.734375c0 11.722656-9.503906 21.226563-21.230468 21.226563zm0 0" fill="#fea82f"/><path d="m491.832031 47.914062h-85.089843v-16.601562c0-17.265625-14.046876-31.3125-31.3125-31.3125-17.265626 0-31.3125 14.046875-31.3125 31.3125v16.601562h-175.53125v-16.601562c0-17.265625-14.046876-31.3125-31.316407-31.3125-17.265625 0-31.3125 14.046875-31.3125 31.3125v16.601562h-85.789062c-11.121094 0-20.167969 9.046876-20.167969 20.167969v381.59375c0 11.121094 9.046875 20.167969 20.167969 20.167969h471.664062c11.121094 0 20.167969-9.046875 20.167969-20.167969v-381.59375c0-11.121093-9.046875-20.167969-20.167969-20.167969zm-127.546875-16.601562c0-6.144531 5-11.144531 11.144532-11.144531 6.144531 0 11.144531 5 11.144531 11.144531v49.730469c0 6.148437-5 11.148437-11.144531 11.148437-6.144532 0-11.144532-5-11.144532-11.148437zm-238.160156 0c0-6.144531 5-11.144531 11.144531-11.144531 6.148438 0 11.148438 5 11.148438 11.144531v49.730469c0 6.148437-5 11.148437-11.148438 11.148437-6.144531 0-11.144531-5-11.144531-11.148437zm-105.957031 36.769531h85.789062v12.960938c0 17.265625 14.046875 31.316406 31.3125 31.316406 17.269531 0 31.316407-14.050781 31.316407-31.316406v-12.960938h175.53125v12.960938c0 17.265625 14.046874 31.316406 31.3125 31.316406 17.265624 0 31.3125-14.050781 31.3125-31.316406v-12.960938h85.089843v82.914063h-471.664062zm471.664062 381.59375h-471.664062v-278.511719h471.664062zm0 0"/><path d="m141.742188 393.410156c2.109374 1.464844 4.328124 2.207032 6.582031 2.207032h80.640625c2.28125 0 4.226562-1.085938 5.78125-3.21875 1.457031-1.996094 2.199218-4.324219 2.199218-6.917969 0-2.753907-.75-5.125-2.234374-7.058594-1.570313-2.039063-3.519532-3.074219-5.800782-3.074219h-68.667968v-10.335937c0-4.105469 1.777343-8.378907 5.28125-12.703125 3.628906-4.484375 8.179687-8.660156 13.546874-12.414063l18.3125-13.148437c6.550782-4.925782 12.679688-9.910156 18.21875-14.8125 5.648438-5.003906 10.433594-11.1875 14.222657-18.371094 3.820312-7.238281 5.753906-14.898438 5.753906-22.773438 0-13.09375-4.679687-24.128906-13.910156-32.792968-9.207031-8.636719-20.816407-13.019532-34.503907-13.019532-12.761718 0-23.703124 3.824219-32.519531 11.359376-8.882812 7.589843-13.386719 17.453124-13.386719 29.308593 0 10.464844 5.472657 12.664063 10.0625 12.664063 3.367188 0 6.125-.898438 8.199219-2.667969 2.140625-1.824219 3.226563-3.984375 3.226563-6.429687 0-7.773438 2.265625-13.761719 6.734375-17.808594 4.511719-4.082032 10.460937-6.152344 17.683593-6.152344 8.519532 0 15.117188 2.625 19.617188 7.804688 4.550781 5.242187 6.855469 11.441406 6.855469 18.425781 0 6.554687-2.550781 13.121093-7.585938 19.515625-5.152343 6.546875-11.476562 12.539062-18.816406 17.824218l-22.167969 16.582032c-7.320312 5.425781-13.648437 11.597656-18.816406 18.347656-5.273438 6.890625-7.949219 14.03125-7.949219 21.222656v22.324219c0 2.480469 1.15625 4.535156 3.441407 6.113281zm0 0"/><path d="m271.925781 385.050781c9.019531 7.925781 21.433594 11.945313 36.894531 11.945313 15.003907 0 27.265626-4.179688 36.449219-12.414063 9.222657-8.277343 13.898438-21.261719 13.898438-38.585937v-4.363282c0-16.726562-4.644531-29.210937-13.804688-37.109374-9.101562-7.84375-21.394531-11.824219-36.542969-11.824219h-21.25l3.230469-47.449219h52.617188c2.457031 0 4.449219-1.152344 5.757812-3.324219 1.195313-1.976562 1.796875-4.269531 1.796875-6.8125s-.605468-4.835937-1.796875-6.816406c-1.3125-2.171875-3.304687-3.320313-5.757812-3.320313h-65.550781c-2.679688 0-5.96875 1.421876-6.414063 8.203126l-4.363281 64.144531c-.582032 1.890625-.875 3.675781-.875 5.296875 0 4.09375 1.785156 8.972656 10.289062 8.972656h32.316406c8.972657 0 16.027344 2.523438 20.960938 7.5 4.941406 4.980469 7.445312 12.566406 7.445312 22.539062v4.359376c0 10.285156-2.507812 18.0625-7.449218 23.121093-4.9375 5.050781-12.0625 7.609375-21.183594 7.609375-8.300781 0-15.214844-2.03125-20.546875-6.03125-5.289063-3.960937-7.855469-9.261718-7.855469-16.203125 0-4.203125-1.90625-9.214843-10.972656-9.214843-7.175781 0-10.972656 3.660156-10.972656 10.59375 0 11.394531 4.601562 21.214843 13.679687 29.183593zm0 0"/><path d="m48.28125 249.519531c5.566406 0 10.082031-4.515625 10.082031-10.085937v-30.769532h36.304688c5.570312 0 10.085937-4.515624 10.085937-10.082031 0-5.570312-4.515625-10.085937-10.085937-10.085937h-46.386719c-5.570312 0-10.085938 4.515625-10.085938 10.085937v40.851563c0 5.570312 4.515626 10.085937 10.085938 10.085937zm0 0"/><path d="m420.5625 432.964844h46.386719c5.566406 0 10.085937-4.515625 10.085937-10.082032v-40.855468c0-5.570313-4.519531-10.085938-10.085937-10.085938-5.570313 0-10.085938 4.515625-10.085938 10.085938v30.769531h-36.300781c-5.570312 0-10.085938 4.515625-10.085938 10.085937 0 5.566407 4.515626 10.082032 10.085938 10.082032zm0 0"/><path d="m38.800781 282.605469c1.460938 4.144531 5.351563 6.738281 9.511719 6.738281 1.113281 0 2.242188-.1875 3.347656-.578125 5.253906-1.851563 8.011719-7.609375 6.164063-12.859375l-.0625-.175781c-1.851563-5.25-7.609375-8.011719-12.863281-6.160157-5.25 1.851563-8.007813 7.609376-6.160157 12.863282zm0 0"/></svg>